<?xml version="1.0" encoding="UTF-8"?>
<svg id="Capa_1" xmlns="http://www.w3.org/2000/svg" version="1.1" viewBox="0 0 800 800">
  <!-- Generator: Adobe Illustrator 30.1.0, SVG Export Plug-In . SVG Version: 2.1.1 Build 136)  -->
  <path d="M592.09,335.67c9.76-61.35,86.45-126.89,146.41-128.28,4.18,0,9.38.1,12.17-2.69,2.74-3.04,3.78-4.68,5.96-8.47,20.92-39.04,9.76-69.72-25.1-94.82-40.44-29.28-104.58,0-136.65,26.49-80.87,66.93-153.89,185.03-163.18,292.75-7.21,74.59-6.93,153.45,13.98,218.98,13.94,41.83,54.38,62.75,96.21,65.54,41.83,2.79,128.28,15.34,165.93-9.76,37.65-25.1,39.81-74.24,44.62-115.73,4.18-46.01,16.73-132.47-22.31-168.72-39.04-34.86-151.99,2.79-138.04-75.3Z"/>
  <path d="M182.96,335.67c9.76-61.35,86.45-126.89,146.41-128.28,4.18,0,9.38.1,12.17-2.69,2.74-3.04,3.78-4.68,5.96-8.47,20.92-39.04,9.76-69.72-25.1-94.82-40.44-29.28-104.58,0-136.65,26.49C104.88,194.84,31.86,312.94,22.57,420.66c-7.21,74.59-6.93,153.45,13.98,218.98,13.94,41.83,54.38,62.75,96.21,65.54,41.83,2.79,128.28,15.34,165.93-9.76,37.65-25.1,39.81-74.24,44.62-115.73,4.18-46.01,16.73-132.47-22.31-168.72-39.04-34.86-151.99,2.79-138.04-75.3Z"/>
</svg>